PathFileType	4	(X/Y/Z)	/Users/itak/Documents/Research/Walk-IL/dataset/trc/00001_00004.trc
DataRate	CameraRate	NumFrames	NumMarkers	Units	OrigDataRate	OrigDataStartFrame	OrigNumFrames
100.000000	100.000000	4	53	mm	100.000000	236	378
Frame#	Time	RPSI			LPSI			L3			STRN			T10			C7			CLAV			RBAK			LBAK			LSHO			LUPA			LAEL			LAOL			LWTS			LWPS			LFRA			LIFD			LHPS			LHTS			RSHO			RUPA			RAEL			RAOL			RWTS			RWPS			RFRA			RIFD			RHTS			RHPS			RBHD			LFHD			RFHD			LBHD			LHIP			RHIP			RASI			LASI			LKNE			LTHI			LANK			LTIP			LTOE			LMT1			LMT5			LHEE			RKNE			RTHI			RANK			RTIP			RTOE			RMT1			RMT5			RHEE			
		X1	Y1	Z1	X2	Y2	Z2	X3	Y3	Z3	X4	Y4	Z4	X5	Y5	Z5	X6	Y6	Z6	X7	Y7	Z7	X8	Y8	Z8	X9	Y9	Z9	X10	Y10	Z10	X11	Y11	Z11	X12	Y12	Z12	X13	Y13	Z13	X14	Y14	Z14	X15	Y15	Z15	X16	Y16	Z16	X17	Y17	Z17	X18	Y18	Z18	X19	Y19	Z19	X20	Y20	Z20	X21	Y21	Z21	X22	Y22	Z22	X23	Y23	Z23	X24	Y24	Z24	X25	Y25	Z25	X26	Y26	Z26	X27	Y27	Z27	X28	Y28	Z28	X29	Y29	Z29	X30	Y30	Z30	X31	Y31	Z31	X32	Y32	Z32	X33	Y33	Z33	X34	Y34	Z34	X35	Y35	Z35	X36	Y36	Z36	X37	Y37	Z37	X38	Y38	Z38	X39	Y39	Z39	X40	Y40	Z40	X41	Y41	Z41	X42	Y42	Z42	X43	Y43	Z43	X44	Y44	Z44	X45	Y45	Z45	X46	Y46	Z46	X47	Y47	Z47	X48	Y48	Z48	X49	Y49	Z49	X50	Y50	Z50	X51	Y51	Z51	X52	Y52	Z52	X53	Y53	Z53	

237	2.36	-1017.460998535156	1034.2470703125	-152.6956329345703	-1016.262512207031	1030.036987304688	-315.8868713378906	-1018.353332519531	1100.3916015625	-238.0444030761719	-782.7430419921875	1278.01513671875	-225.6778717041016	-1034.019287109375	1248.32080078125	-236.2369384765625	-965.9352416992188	1510.858154296875	-246.3404846191406	-816.6417846679688	1406.154052734375	-234.5493469238281	-1032.346313476562	1380.220825195312	-166.3382110595703	-984.3604736328125	1469.717163085938	-343.98193359375	-879.508056640625	1465.13232421875	-414.504638671875	-921.1107177734375	1342.55859375	-490.52490234375	-946.75390625	1127.015380859375	-512.8121948242188	-998.9458618164062	1118.855224609375	-420.0148315429688	-872.4721069335938	869.4989013671875	-465.805419921875	-954.4716796875	859.2285766601562	-498.7380981445312	-944.2958374023438	1010.312316894531	-519.2763671875	-851.1160278320312	687.7196044921875	-445.9442138671875	-925.15966796875	767.60009765625	-500.0841674804688	-857.0127563476562	775.4446411132812	-481.1651306152344	-897.0106811523438	1493.419555664062	-69.40347290039062	-919.0438232421875	1424.719360351562	4.223877906799316	-978.5319213867188	1162.40234375	38.51286697387695	-980.6835327148438	1129.480346679688	-56.59525299072266	-862.2923583984375	895.94970703125	24.47725105285645	-930.3199462890625	887.716552734375	87.73604583740234	-970.5088500976562	1086.633911132812	58.2741584777832	-859.001953125	712.7102661132812	12.67424583435059	-835.1260986328125	785.6806030273438	46.66192245483398	-893.6947631835938	785.9927978515625	93.7252197265625	-889.081298828125	1688.727416992188	-309.7636108398438	-707.407958984375	1675.880859375	-188.9507598876953	-708.35400390625	1673.126953125	-287.3731689453125	-880.7327880859375	1687.384887695312	-165.2675628662109	-908.564697265625	939.476318359375	-424.0201721191406	-913.8844604492188	922.1664428710938	-45.64772415161133	-804.7175903320312	949.7041625976562	-110.9553451538086	-801.5416259765625	982.9229736328125	-346.0845031738281	-692.994873046875	546.2456665039062	-376.8287963867188	-776.3295288085938	654.2523803710938	-418.2261352539062	-634.9974365234375	52.1804313659668	-395.4341430664062	-691.5226440429688	295.3494567871094	-406.2549743652344	-430.0279235839844	104.8104248046875	-315.2415771484375	-489.0139465332031	95.53801727294922	-302.1058959960938	-514.3742065429688	85.23360443115234	-405.0457763671875	-705.9765014648438	38.30291748046875	-347.6295776367188	-987.7535400390625	495.8384094238281	-101.0112380981445	-916.8115844726562	756.5358276367188	-55.62544631958008	-1237.314331054688	60.71426010131836	-140.4798736572266	-1048.333740234375	380.3291625976562	-105.8722839355469	-1007.947937011719	43.7394905090332	-183.1105804443359	-1069.693481445312	50.35102844238281	-212.5946502685547	-1089.330810546875	44.49626541137695	-117.0712432861328	-1293.458740234375	70.327392578125	-184.1420745849609	
238	2.37	-1010.120971679688	1033.614868164062	-154.5305938720703	-1008.785949707031	1029.248413085938	-317.7552490234375	-1011.057434082031	1099.57763671875	-239.75634765625	-775.5805053710938	1277.230590820312	-227.5484161376953	-1026.770385742188	1247.474243164062	-238.1345520019531	-958.811279296875	1510.05419921875	-248.3908538818359	-809.4660034179688	1405.35791015625	-236.5121002197266	-1025.163208007812	1379.426391601562	-168.3359222412109	-977.1968994140625	1468.83154296875	-346.0243225097656	-872.3201904296875	1464.220947265625	-416.5213623046875	-913.8517456054688	1341.522705078125	-492.4302062988281	-939.4541625976562	1125.93896484375	-514.3970947265625	-991.6513671875	1117.923828125	-421.5834045410156	-865.5529174804688	868.3190307617188	-467.0729675292969	-947.6251220703125	858.190673828125	-500.02978515625	-937.1587524414062	1009.231506347656	-520.7233276367188	-845.364501953125	686.0250854492188	-446.8690185546875	-918.5007934570312	766.503662109375	-501.2713012695312	-850.3807983398438	774.2131958007812	-482.34521484375	-889.9052124023438	1492.688598632812	-71.42423248291016	-911.9420776367188	1424.031372070312	2.246905565261841	-971.5266723632812	1161.776733398438	36.70380401611328	-973.6643676757812	1128.78076171875	-58.38703918457031	-855.569091796875	895.2161254882812	22.93866348266602	-923.598876953125	887.1015014648438	86.18441772460938	-963.6034545898438	1086.029296875	56.51536560058594	-852.4402465820312	711.9281616210938	11.30995178222656	-828.5493774414062	784.916259765625	45.22340774536133	-887.1357421875	785.3597412109375	92.32376861572266	-882.288330078125	1687.90283203125	-311.8033142089844	-700.5966796875	1675.473266601562	-190.9651794433594	-701.54248046875	1672.686401367188	-289.3804931640625	-873.9354248046875	1686.610595703125	-167.2787322998047	-901.1876220703125	938.4826049804688	-425.6623840332031	-906.804443359375	921.6318969726562	-47.30801391601562	-797.5061645507812	948.8712158203125	-112.5303115844727	-794.0629272460938	981.9995727539062	-347.7630615234375	-685.4481811523438	545.0909423828125	-377.6594543457031	-768.9700927734375	653.105712890625	-419.5801086425781	-631.4611206054688	50.66221618652344	-395.474609375	-685.6965942382812	294.1042785644531	-406.5128173828125	-426.3290100097656	101.2546310424805	-314.451171875	-485.4361572265625	92.46218872070312	-301.4996032714844	-510.5444030761719	82.42835235595703	-404.5269775390625	-702.8955078125	37.69339370727539	-347.906982421875	-982.6478881835938	495.6073608398438	-101.5915069580078	-910.5667724609375	756.1117553710938	-56.96596908569336	-1236.810180664062	62.56894683837891	-139.9584808349609	-1044.283447265625	380.4720764160156	-106.1688537597656	-1007.853759765625	43.67499923706055	-183.0888061523438	-1069.502197265625	50.66915130615234	-212.4281463623047	-1088.941772460938	44.48833847045898	-116.8460388183594	-1292.977172851562	73.05807495117188	-183.6065063476562	
239	2.38	-1002.569885253906	1033.082885742188	-156.4235992431641	-1001.132019042969	1028.606323242188	-319.6913146972656	-1003.608337402344	1098.872680664062	-241.5093688964844	-768.2576293945312	1276.558837890625	-229.5155181884766	-1019.377075195312	1246.734497070312	-240.1123504638672	-951.5416870117188	1509.35986328125	-250.5197906494141	-802.1365966796875	1404.677612304688	-238.5659790039062	-1017.820678710938	1378.72998046875	-170.4104309082031	-969.8807373046875	1468.055908203125	-348.1493530273438	-864.982177734375	1463.429321289062	-418.6257629394531	-906.4383544921875	1340.604248046875	-494.4237976074219	-931.9871215820312	1124.97998046875	-516.0685424804688	-984.1902465820312	1117.10986328125	-423.2373657226562	-858.4551391601562	867.261474609375	-468.4189453125	-940.5936889648438	857.2728881835938	-501.40087890625	-929.8483276367188	1008.267944335938	-522.2539672851562	-839.3073120117188	684.5384521484375	-447.8902893066406	-911.651123046875	765.52734375	-502.5347900390625	-843.5618286132812	773.1019897460938	-483.59912109375	-882.6361083984375	1492.058471679688	-73.52462768554688	-904.6701049804688	1423.435668945312	0.183664083480835	-964.3619995117188	1161.24560546875	34.78628158569336	-966.481689453125	1128.177734375	-60.28718566894531	-848.7481689453125	894.552734375	21.2996654510498	-916.7893676757812	886.5759887695312	84.52698516845703	-956.545166015625	1085.523193359375	54.65055084228516	-845.847412109375	711.2030029296875	9.846526145935059	-821.9053344726562	784.2142944335938	43.6854133605957	-880.5245361328125	784.8114013671875	90.82936096191406	-875.3645629882812	1687.204956054688	-313.9103698730469	-693.650390625	1675.194946289062	-193.0501708984375	-694.5933837890625	1672.382446289062	-291.4597778320312	-867.0087890625	1685.95263671875	-169.3619842529297	-893.6553344726562	937.6351318359375	-427.3824462890625	-899.5109252929688	921.161865234375	-49.05816650390625	-790.1026000976562	948.1182250976562	-114.2192459106445	-786.4078979492188	981.2003784179688	-349.5442199707031	-677.8787841796875	543.989990234375	-378.5084838867188	-761.4751586914062	652.09423828125	-420.9100952148438	-628.6182861328125	49.13200759887695	-395.4486694335938	-680.1288452148438	292.8688049316406	-406.7264709472656	-423.2016906738281	97.17025756835938	-313.6819458007812	-482.4147338867188	89.00094604492188	-300.8862915039062	-507.3561096191406	79.280029296875	-403.9882507324219	-700.50244140625	37.29922485351562	-348.0609436035156	-977.3548583984375	495.4573974609375	-102.2465591430664	-904.1028442382812	755.7559814453125	-58.38718795776367	-1236.229248046875	64.60329437255859	-139.4071960449219	-1040.063842773438	380.7256164550781	-106.4949798583984	-1007.751037597656	43.62129592895508	-183.0603179931641	-1069.276123046875	51.03664779663086	-212.2483062744141	-1088.513916015625	44.49090957641602	-116.6047668457031	-1292.393188476562	76.01280212402344	-183.0393524169922	
240	2.39	-994.8152465820312	1032.662475585938	-158.3679962158203	-993.3120727539062	1028.131958007812	-321.6844177246094	-996.0114135742188	1098.29443359375	-243.3090209960938	-760.7815551757812	1276.016235351562	-231.5765075683594	-1011.849060058594	1246.12060546875	-242.1655578613281	-944.13037109375	1508.79296875	-252.7244415283203	-794.65966796875	1404.128662109375	-240.7081909179688	-1010.324340820312	1378.14990234375	-172.5581512451172	-962.4154663085938	1467.407470703125	-350.3540954589844	-857.4984130859375	1462.773315429688	-420.8153991699219	-898.8711547851562	1339.81982421875	-496.5029296875	-924.3575439453125	1124.154907226562	-517.8260498046875	-976.5729370117188	1116.430053710938	-424.9790649414062	-851.18896484375	866.3438720703125	-469.84130859375	-933.3807373046875	856.4926147460938	-502.8525695800781	-922.369384765625	1007.437744140625	-523.8690185546875	-832.9254150390625	683.2919311523438	-449.0153198242188	-904.612548828125	764.6881103515625	-503.8761596679688	-836.5549926757812	772.1300048828125	-484.926513671875	-875.2059326171875	1491.54541015625	-75.70214080810547	-897.2296142578125	1422.94775390625	-1.964988231658936	-957.0381469726562	1160.82470703125	32.75708389282227	-959.1311645507812	1127.6865234375	-62.29941558837891	-841.8280029296875	893.9758911132812	19.55911064147949	-909.8934936523438	886.1572265625	82.75992584228516	-949.3316040039062	1085.13134765625	52.67757415771484	-839.21630859375	710.5545654296875	8.284548759460449	-815.1890258789062	783.5932006835938	42.05012893676758	-873.8623046875	784.3642578125	89.24288177490234	-868.3079223632812	1686.6494140625	-316.0824890136719	-686.5713500976562	1675.05859375	-195.2011871337891	-687.5069580078125	1672.228515625	-293.6069030761719	-859.9564819335938	1685.4267578125	-171.5176849365234	-885.9681396484375	936.9640502929688	-429.1752624511719	-892.0053100585938	920.7631225585938	-50.89449691772461	-782.5107421875	947.4615478515625	-116.0219345092773	-778.581298828125	980.5507202148438	-351.4229431152344	-670.2928466796875	542.9830322265625	-379.38427734375	-753.8432006835938	651.2507934570312	-422.2034301757812	-626.3611450195312	47.64316558837891	-395.3997192382812	-674.7622680664062	291.6883544921875	-406.9367065429688	-420.5530090332031	92.66959381103516	-312.9868469238281	-479.8491821289062	85.25440979003906	-300.3193359375	-504.7128601074219	75.87439727783203	-403.4830017089844	-698.6685791015625	37.15220260620117	-348.128662109375	-971.83447265625	495.38525390625	-102.9772644042969	-897.404052734375	755.47412109375	-59.88730621337891	-1235.555297851562	66.82958221435547	-138.8352661132812	-1035.644653320312	381.0898742675781	-106.8497085571289	-1007.638671875	43.58158111572266	-183.0241088867188	-1069.007568359375	51.45685195922852	-212.0574798583984	-1088.055297851562	44.50346755981445	-116.3572692871094	-1291.678100585938	79.20752716064453	-182.4515533447266	
